# xmcd
#
# Track frame offsets:
#	150
#	17519
#	37069
#	62305
#
# Disc length: 1073 seconds
#
# Revision: 0
# Processed by: cddbd v1.5.1PL0 Copyright (c) Steve Scherf et al.
# Submitted via: audiograbber 1.83.01
#
DISCID=26042f04
DTITLE=Otto Otto Tr - Viaggio Al Centro Del Mondo (Maxi)
DYEAR=2000
DGENRE=Pop
TTITLE0=Viaggio Al Centro Del Mondo (Radio Version)
TTITLE1=Viaggio Al Centro Del Mondo Eiffel65 RMX (Gabry Ponte Radio Cut)
TTITLE2=Viaggio Al Centro Del Mondo Eiffel65 rmx (Gabry Ponte Main Remix)
TTITLE3=Grazie Mille
EXTD=
EXTT0=
EXTT1=
EXTT2=
EXTT3=
PLAYORDER=
